<svg x="0" y="0" width="300" height="300" version="1.1" xmlns="http://www.w3.org/2000/svg" xmlns:xlink="http://www.w3.org/1999/xlink"><g data-paper-data="{&quot;description&quot;:&quot;Logo for pic.me\n===============\n\nThis logo was generated by MarkMaker and is composed of elements designed by others.\n\nThe font is Flamenco Light designed by LatinoType and released under the OFL license via Google Fonts: https://www.google.com/fonts/specimen/Flamenco. The font includes this copyright statement: Copyright (c) 2011 by LatinoType Limitada (info@latinotype.com), with Reserved Font Names \\\&quot;Flamenco\\\n\nThe symbol is 'polaroid' designed by Johan H. W. Basberg and released into the public domain at the Noun Project: https://thenounproject.com/term/polaroid/1734.\n\nMarkMaker uses semantic data from the Princeton University WordNet database http://wordnet.princeton.edu and font descriptions from Google Fonts https://www.google.com/fonts.\n\nThis design is inspired by designs that past users of MarkMaker have liked. As a result, it may be visually similar to past or future designs generated by the system. There is no guarantee that it is unique, original, or suitable in any way for use as a logo.\n\n&quot;}" fill="#a31471" stroke="none" stroke-width="1" stroke-linecap="butt" stroke-linejoin="miter" stroke-miterlimit="none" stroke-dasharray="" stroke-dashoffset="0" font-family="none" font-weight="none" font-size="none" text-anchor="start" mix-blend-mode="normal"><g data-paper-data="{&quot;elementType&quot;:&quot;logo&quot;}" stroke-miterlimit="10" font-family="sans-serif" font-weight="normal" font-size="12"><g data-paper-data="{&quot;elementType&quot;:&quot;text&quot;}"><g data-paper-data="{&quot;baseline&quot;:60.800000000000004,&quot;elementType&quot;:&quot;row&quot;}"><g data-paper-data="{&quot;baselineProportion&quot;:0.9918433931484503,&quot;fontSize&quot;:100,&quot;baseline&quot;:60.800000000000004,&quot;elementType&quot;:&quot;word&quot;}"><path d="M161.66454,166.37055c0,0.29249 -0.15539,0.43874 -0.46616,0.43874c-0.31078,0 -0.46616,-0.14625 -0.46616,-0.43874l0,-32.24751l-4.27773,0c-0.29249,0 -0.43874,-0.15539 -0.43874,-0.46616c0,-0.31078 0.14625,-0.46616 0.43874,-0.46616l17.87872,0c7.67798,0 11.51697,3.49165 11.51697,10.47496c0,6.98331 -3.83899,10.47496 -11.51697,10.47496l-12.66867,0l0,12.22992 M161.66454,134.12304l0,19.08526l12.66867,0c7.05643,0 10.58464,-3.18088 10.58464,-9.54263c0,-6.36175 -3.52821,-9.54263 -10.58464,-9.54263l-12.66867,0z" data-paper-data="{&quot;elementType&quot;:&quot;letter&quot;,&quot;baseline&quot;:60.800000000000004,&quot;baselineProportion&quot;:0.9918433931484503,&quot;fontSize&quot;:100}"></path><path d="M193.69268,166.31571l0,-19.35948l-4.77132,0c-0.29249,0 -0.43874,-0.15539 -0.43874,-0.46616c0,-0.31078 0.14625,-0.46616 0.43874,-0.46616l5.21006,0c0.32906,0 0.49358,0.16453 0.49358,0.49358l0,19.79822c0,0.32906 -0.15539,0.49358 -0.46616,0.49358c-0.31078,0 -0.46616,-0.16453 -0.46616,-0.49358 M193.39105,136.61838c0,0 -0.04113,-0.04113 -0.1234,-0.1234c-0.08226,-0.08226 -0.1234,-0.23308 -0.1234,-0.45245c0,-0.21937 0.08226,-0.41132 0.24679,-0.57585c0.16453,-0.16453 0.35648,-0.24679 0.57585,-0.24679c0.21937,0 0.41132,0.08226 0.57585,0.24679c0.16453,0.16453 0.24679,0.35648 0.24679,0.57585c0,0.21937 -0.08226,0.41132 -0.24679,0.57585c-0.16453,0.16453 -0.35648,0.24679 -0.57585,0.24679c-0.21937,0 -0.41132,-0.08226 -0.57585,-0.24679z" data-paper-data="{&quot;elementType&quot;:&quot;letter&quot;,&quot;baseline&quot;:57.1,&quot;baselineProportion&quot;:0.9913194444444444,&quot;fontSize&quot;:100}"></path><path d="M211.79078,166.80929c-2.96151,0 -5.33802,-1.01459 -7.12955,-3.04377c-1.79153,-2.02918 -2.68729,-4.55194 -2.68729,-7.56829c0,-3.01635 0.94147,-5.51169 2.8244,-7.48603c1.88293,-1.97434 4.24117,-2.96151 7.07471,-2.96151c2.83354,0 5.29232,0.67639 7.37634,2.02918c0.14625,0.10969 0.21937,0.23765 0.21937,0.3839l0,4.93584c0,0.29249 -0.15539,0.43874 -0.46616,0.43874c-0.31078,0 -0.46616,-0.14625 -0.46616,-0.43874l0,-4.66163c-1.90121,-1.16998 -4.13148,-1.75497 -6.69081,-1.75497c-2.55933,0 -4.68905,0.89576 -6.38918,2.68729c-1.70012,1.79153 -2.55019,4.09492 -2.55019,6.91018c0,2.81526 0.83178,5.11865 2.49534,6.91018c1.66356,1.79153 3.79329,2.68729 6.38918,2.68729c3.50993,0 6.08754,-1.31623 7.73282,-3.94868c0.18281,-0.25593 0.40218,-0.31078 0.65811,-0.16453c0.14625,0.10969 0.21937,0.21937 0.21937,0.32906c0,0.10969 -0.01828,0.21937 -0.05484,0.32906c-1.82809,2.92494 -4.67991,4.38742 -8.55546,4.38742z" data-paper-data="{&quot;elementType&quot;:&quot;letter&quot;,&quot;baseline&quot;:37.9,&quot;baselineProportion&quot;:0.9869791666666666,&quot;fontSize&quot;:100}"></path><path d="M227.36611,166.80929c0,0 -0.14625,0 -0.43874,0c-0.29249,0 -0.43874,-0.29249 -0.43874,-0.87748c0,-0.58499 0.29249,-0.87748 0.87748,-0.87748c0.58499,0 0.87748,0.29249 0.87748,0.87748c0,0.58499 -0.29249,0.87748 -0.87748,0.87748z" data-paper-data="{&quot;elementType&quot;:&quot;letter&quot;,&quot;baseline&quot;:2.700000000000003,&quot;baselineProportion&quot;:0.8437500000000001,&quot;fontSize&quot;:100}"></path><path d="M271.51449,166.53508l-2.02918,0c-2.41308,0 -3.61962,-0.96889 -3.61962,-2.90666l0,-12.50414c0,-2.96151 -1.57216,-4.44226 -4.71647,-4.44226c-3.50993,0 -6.39832,2.1023 -8.66515,6.30691l0,13.32678c0,0.29249 -0.15539,0.43874 -0.46616,0.43874c-0.31078,0 -0.46616,-0.14625 -0.46616,-0.43874l0,-15.19143c0,-2.96151 -1.57216,-4.44226 -4.71647,-4.44226c-3.47337,0 -6.36175,2.1023 -8.66515,6.30691l0,13.32678c0,0.29249 -0.15539,0.43874 -0.46616,0.43874c-0.31078,0 -0.46616,-0.14625 -0.46616,-0.43874l0,-17.7142c0,-1.27966 -0.89576,-1.91949 -2.68729,-1.91949l-2.02918,0c-0.32906,0 -0.49358,-0.15539 -0.49358,-0.46616c0,-0.31078 0.16453,-0.46616 0.49358,-0.46616l2.02918,0c2.41308,0 3.61962,0.95061 3.61962,2.85182l0,2.74214c2.33996,-3.7293 5.22834,-5.59396 8.66515,-5.59396c3.76587,0 5.6488,1.79153 5.6488,5.37459l0,0.21937c2.33996,-3.7293 5.22834,-5.59396 8.66515,-5.59396c3.76587,0 5.6488,1.79153 5.6488,5.37459l0,12.50414c0,1.31623 0.89576,1.97434 2.68729,1.97434l2.02918,0c0.32906,0 0.49358,0.15539 0.49358,0.46616c0,0.31078 -0.16453,0.46616 -0.49358,0.46616z" data-paper-data="{&quot;elementType&quot;:&quot;letter&quot;,&quot;baseline&quot;:37.9,&quot;baselineProportion&quot;:0.9895561357702348,&quot;fontSize&quot;:100}"></path><path d="M285.28001,166.80929c-3.10775,0 -5.53911,-0.99631 -7.29408,-2.98893c-1.75497,-1.99262 -2.63245,-4.53366 -2.63245,-7.62314c0,-3.08947 0.91405,-5.6031 2.74214,-7.54087c1.82809,-1.93778 4.22289,-2.90666 7.1844,-2.90666c2.96151,0 5.15521,0.89576 6.58113,2.68729c1.42591,1.79153 2.13887,4.22289 2.13887,7.29408c0,0.32906 -0.14625,0.49358 -0.43874,0.49358l-17.27545,0l0,0.05484c0,2.92494 0.8135,5.25576 2.4405,6.99245c1.627,1.73669 3.81157,2.60503 6.5537,2.60503c3.50993,0 6.08754,-1.31623 7.73282,-3.94868c0.18281,-0.25593 0.40218,-0.30163 0.65811,-0.13711c0.25593,0.16453 0.31078,0.37476 0.16453,0.63069c-1.82809,2.92494 -4.67991,4.38742 -8.55546,4.38742 M293.06767,155.29232c0,-2.59589 -0.63983,-4.67991 -1.91949,-6.25207c-1.27966,-1.57216 -3.21744,-2.35824 -5.81333,-2.35824c-2.59589,0 -4.69819,0.78608 -6.30691,2.35824c-1.60872,1.57216 -2.52276,3.65618 -2.74214,6.25207l16.78187,0z" data-paper-data="{&quot;elementType&quot;:&quot;letter&quot;,&quot;baseline&quot;:37.9,&quot;baselineProportion&quot;:0.9869791666666666,&quot;fontSize&quot;:100}"></path></g></g></g></g><g data-paper-data="{&quot;elementType&quot;:&quot;emblem&quot;}" stroke="none" stroke-miterlimit="4" font-family="'Helvetica Neue', Helvetica, Arial, sans-serif" font-weight="bold" font-size="24"><g><path d="M6,220.87674l94.76504,0l0,-114.293l-94.76504,0z M12.48097,114.40003l81.8031,0l0,80.28067l-81.8031,0z"></path><path d="M49.79899,79.12326l-2.71458,24.4142l6.52066,0l1.77192,-15.92884l81.30271,9.03962l-8.87235,79.78878l-24.30789,-2.70324l0,26.35623l27.85456,3.09873l12.63024,-113.59415z"></path></g></g></g></svg>