<svg x="0" y="0" width="300" height="300" version="1.1" xmlns="http://www.w3.org/2000/svg" xmlns:xlink="http://www.w3.org/1999/xlink"><g data-paper-data="{&quot;description&quot;:&quot;Logo for pic.me\n===============\n\nThis logo was generated by MarkMaker and is composed of elements designed by others.\n\nThe font is Titillium WebBold designed by Multiple Designers and released under the OFL license via Google Fonts: https://www.google.com/fonts/specimen/Titillium Web. The font includes this copyright statement: Copyright (c) 2009-2011 by Accademia di Belle Arti di Urbino (titillium@campivisivi.net) and students of MA course of Visual design. Some rights reserved.\n\nThe symbol is 'conference' designed by Icons8 and released into the public domain at the Noun Project: https://thenounproject.com/term/conference/61727.\n\nMarkMaker uses semantic data from the Princeton University WordNet database http://wordnet.princeton.edu and font descriptions from Google Fonts https://www.google.com/fonts.\n\nThis design is inspired by designs that past users of MarkMaker have liked. As a result, it may be visually similar to past or future designs generated by the system. There is no guarantee that it is unique, original, or suitable in any way for use as a logo.\n\n&quot;}" fill="none" stroke="none" stroke-width="1" stroke-linecap="butt" stroke-linejoin="miter" stroke-miterlimit="none" stroke-dasharray="" stroke-dashoffset="0" font-family="none" font-weight="none" font-size="none" text-anchor="start" mix-blend-mode="normal"><g data-paper-data="{&quot;elementType&quot;:&quot;logo&quot;}" fill="#0ff1f1" stroke-miterlimit="10" font-family="sans-serif" font-weight="normal" font-size="12"><g data-paper-data="{&quot;elementType&quot;:&quot;text&quot;}"><g data-paper-data="{&quot;baseline&quot;:70,&quot;elementType&quot;:&quot;row&quot;}"><g data-paper-data="{&quot;baselineProportion&quot;:0.9831460674157303,&quot;fontSize&quot;:100,&quot;baseline&quot;:70,&quot;elementType&quot;:&quot;word&quot;}"><path d="M39.56374,155.58522l-4.28456,0l0,7.57448l-5.27918,0l0,-26.01337l9.56374,0c6.1718,0 9.2577,3.00939 9.2577,9.02817c0,3.03489 -0.78423,5.36207 -2.35268,6.98153c-1.56845,1.61946 -3.87013,2.42919 -6.90502,2.42919 M35.27918,151.07114l4.2463,0c2.62684,0 3.94026,-1.63221 3.94026,-4.89663c0,-1.60671 -0.31879,-2.76073 -0.95637,-3.46207c-0.63758,-0.70134 -1.63221,-1.05201 -2.98389,-1.05201l-4.2463,0l0,9.41072z" data-paper-data="{&quot;elementType&quot;:&quot;letter&quot;,&quot;baseline&quot;:68,&quot;baselineProportion&quot;:1,&quot;fontSize&quot;:100}"></path><path d="M52.07311,163.15971l0,-19.12748l5.12616,0l0,19.12748l-5.12616,0 M52.07311,141.58391l0,-5.20267l5.12616,0l0,5.20267l-5.12616,0z" data-paper-data="{&quot;elementType&quot;:&quot;letter&quot;,&quot;baseline&quot;:70,&quot;baselineProportion&quot;:1,&quot;fontSize&quot;:100}"></path><path d="M69.09657,143.57317c1.32617,0 3.02214,0.20403 5.08791,0.61208l1.03288,0.22953l-0.15302,4.05503c-2.01476,-0.20403 -3.5067,-0.30604 -4.47583,-0.30604c-1.75973,0 -2.9265,0.37617 -3.50033,1.12852c-0.57382,0.75235 -0.86074,2.17416 -0.86074,4.26543c0,2.09127 0.28691,3.52583 0.86074,4.30368c0.57382,0.77785 1.75335,1.16678 3.53858,1.16678l4.43758,-0.30604l0.15302,4.09328c-2.72885,0.53557 -4.80737,0.80335 -6.23556,0.80335c-2.83087,0 -4.86476,-0.79698 -6.10167,-2.39093c-1.23691,-1.59396 -1.85537,-4.15066 -1.85537,-7.67012c0,-3.51946 0.63758,-6.06341 1.91275,-7.63186c1.27517,-1.56845 3.32818,-2.35268 6.15905,-2.35268z" data-paper-data="{&quot;elementType&quot;:&quot;letter&quot;,&quot;baseline&quot;:51.2,&quot;baselineProportion&quot;:0.9770992366412213,&quot;fontSize&quot;:100}"></path><path d="M78.77507,163.15971l0,-6.35032l5.50871,0l0,6.35032l-5.50871,0z" data-paper-data="{&quot;elementType&quot;:&quot;letter&quot;,&quot;baseline&quot;:16.599999999999994,&quot;baselineProportion&quot;:1,&quot;fontSize&quot;:100}"></path><path d="M93.92403,163.15971l-5.12616,0l0,-19.12748l5.08791,0l0,1.07114c1.75973,-1.02013 3.26442,-1.5302 4.51409,-1.5302c2.06577,0 3.65972,0.59933 4.78187,1.79798c2.3463,-1.19866 4.48858,-1.79798 6.42683,-1.79798c2.52483,0 4.27818,0.73322 5.26006,2.19966c0.98188,1.46644 1.47282,3.80637 1.47282,7.01978l0,10.36709l-5.12616,0l0,-10.21407c0,-1.63221 -0.17852,-2.83724 -0.53557,-3.61509c-0.35705,-0.77785 -1.07114,-1.16678 -2.14228,-1.16678c-0.81611,0 -1.81073,0.17852 -2.98389,0.53557l-0.57382,0.19127c0.10201,1.91275 0.15302,3.36644 0.15302,4.36107l0,9.90803l-5.12616,0l0,-9.83152c0,-1.88724 -0.16577,-3.21979 -0.49731,-3.99764c-0.33154,-0.77785 -1.05839,-1.16678 -2.18053,-1.16678c-0.99463,0 -1.97651,0.17852 -2.94563,0.53557l-0.45906,0.15302l0,14.30735z" data-paper-data="{&quot;elementType&quot;:&quot;letter&quot;,&quot;baseline&quot;:51.2,&quot;baselineProportion&quot;:1,&quot;fontSize&quot;:100}"></path><path d="M125.10183,155.7765c0.0255,1.17315 0.33792,2.02114 0.93725,2.54395c0.59933,0.52282 1.46006,0.78423 2.58221,0.78423c2.37181,0 4.48858,-0.07651 6.35032,-0.22953l1.07114,-0.11476l0.07651,3.78724c-2.93288,0.71409 -5.58522,1.07114 -7.95703,1.07114c-2.88187,0 -4.97314,-0.7651 -6.27381,-2.2953c-1.30067,-1.5302 -1.951,-4.01677 -1.951,-7.45972c0,-6.86039 2.81812,-10.29058 8.45435,-10.29058c5.55972,0 8.33958,2.88187 8.33958,8.64562l-0.38255,3.55771l-11.24696,0 M131.68168,151.87449c0,-1.5302 -0.24228,-2.59496 -0.72684,-3.19429c-0.48456,-0.59933 -1.33255,-0.89899 -2.54395,-0.89899c-1.21141,0 -2.06577,0.31242 -2.56308,0.93725c-0.49731,0.62483 -0.75872,1.67684 -0.78423,3.15603l6.61811,0z" data-paper-data="{&quot;elementType&quot;:&quot;letter&quot;,&quot;baseline&quot;:51.2,&quot;baselineProportion&quot;:0.9770992366412213,&quot;fontSize&quot;:100}"></path></g></g></g></g><g data-paper-data="{&quot;elementType&quot;:&quot;emblem&quot;}" fill="#8fdcc3" stroke="none" stroke-miterlimit="4" font-family="'Helvetica Neue', Helvetica, Arial, sans-serif" font-weight="bold" font-size="24"><g><circle cx="47.09433" cy="23.10796" transform="scale(5.33657,5.33657)" r="2.5"></circle></g><g><circle cx="34.09433" cy="23.10796" transform="scale(5.33657,5.33657)" r="2.5"></circle></g><g><circle cx="40.59433" cy="21.60796" transform="scale(5.33657,5.33657)" r="3"></circle></g><path d="M251.32202,141.99515c-2.66828,0 -8.53851,1.06731 -10.67313,2.66828c0,0 2.66828,5.87022 2.66828,13.34142c0,0 -6.40388,-21.34627 -26.68283,-21.34627c-20.27895,0 -26.68283,21.34627 -26.68283,21.34627c0,-7.47119 2.66828,-13.34142 2.66828,-13.34142c-2.13463,-1.60097 -8.00485,-2.66828 -10.67313,-2.66828c-9.07216,0 -18.67798,10.67313 -18.67798,17.61067l0,30.41843c0,5.87022 4.80291,10.67313 10.67313,10.67313l15.47604,0c4.80291,-4.80291 13.34142,-10.67313 27.21649,-10.67313c13.87507,0 22.41358,5.87022 27.21649,10.67313l15.47604,0c5.87022,0 10.67313,-4.80291 10.67313,-10.67313l0,-30.41843c0,-6.93754 -10.67313,-17.61067 -18.67798,-17.61067z M216.63433,184.68768c-7.47119,0 -13.34142,-5.87022 -13.34142,-13.34142c0,-7.47119 5.87022,-13.34142 13.34142,-13.34142c7.47119,0 13.34142,5.87022 13.34142,13.34142c0,7.47119 -5.87022,13.34142 -13.34142,13.34142z"></path></g></g></svg>