<svg x="0" y="0" width="300" height="300" version="1.1" xmlns="http://www.w3.org/2000/svg" xmlns:xlink="http://www.w3.org/1999/xlink"><defs><linearGradient x1="30" y1="94.39696" x2="30" y2="205.60304" gradientUnits="userSpaceOnUse" id="color-1"><stop offset="0" stop-color="#cedc30"></stop><stop offset="1" stop-color="#61dc30"></stop></linearGradient></defs><g data-paper-data="{&quot;description&quot;:&quot;Logo for pic.me\n===============\n\nThis logo was generated by MarkMaker and is composed of elements designed by others.\n\nThe font is Advent Pro Regular designed by Andreas Kalpakidis and released under the OFL license via Google Fonts: https://www.google.com/fonts/specimen/Advent Pro. The font includes this copyright statement: Copyright (c) 2008 Andreas Kalpakidis (hello@inderesting.com), with Reserved Font Name \\\&quot;Advent Pro\\\n\nThe symbol is 'polaroid' designed by Johan H. W. Basberg and released into the public domain at the Noun Project: https://thenounproject.com/term/polaroid/1734.\n\nMarkMaker uses semantic data from the Princeton University WordNet database http://wordnet.princeton.edu and font descriptions from Google Fonts https://www.google.com/fonts.\n\nThis design is inspired by designs that past users of MarkMaker have liked. As a result, it may be visually similar to past or future designs generated by the system. There is no guarantee that it is unique, original, or suitable in any way for use as a logo.\n\n&quot;}" fill="url(#color-1)" stroke="none" stroke-width="1" stroke-linecap="butt" stroke-linejoin="miter" stroke-miterlimit="none" stroke-dasharray="" stroke-dashoffset="0" font-family="none" font-weight="none" font-size="none" text-anchor="start" mix-blend-mode="normal"><g data-paper-data="{&quot;elementType&quot;:&quot;logo&quot;}" stroke-miterlimit="10" font-family="sans-serif" font-weight="normal" font-size="12"><g data-paper-data="{&quot;elementType&quot;:&quot;text&quot;}"><g data-paper-data="{&quot;baseline&quot;:71,&quot;elementType&quot;:&quot;row&quot;}"><g data-paper-data="{&quot;baselineProportion&quot;:0.9833795013850415,&quot;fontSize&quot;:100,&quot;baseline&quot;:71,&quot;elementType&quot;:&quot;word&quot;}"><path d="M32.6322,166.40423l-2.6322,0l0,-32.90247l11.56287,0c2.97689,0 5.19389,0.90873 6.651,2.7262c1.45711,1.81747 2.18566,4.26165 2.18566,7.33255c0,1.09675 -0.0235,2.02899 -0.07051,2.79671c-0.047,0.76772 -0.22718,1.73913 -0.54054,2.91422c-0.31336,1.17509 -0.75206,2.13083 -1.3161,2.86722c-0.56404,0.73639 -1.41011,1.37877 -2.53819,1.92714c-1.12808,0.54837 -2.47552,0.82256 -4.0423,0.82256l-9.25969,0l0,11.51586z M32.6322,152.30317l9.3067,0c1.12808,0 2.08382,-0.22718 2.86722,-0.68155c0.78339,-0.45437 1.3631,-0.96357 1.73913,-1.52761c0.37603,-0.56404 0.65805,-1.33177 0.84606,-2.30317c0.25069,-1.09675 0.37603,-2.50685 0.37603,-4.23032c0,-2.53819 -0.54054,-4.434 -1.62162,-5.68743c-1.08108,-1.25343 -2.54602,-1.88014 -4.39483,-1.88014l-9.11868,0l0,16.31022" data-paper-data="{&quot;elementType&quot;:&quot;letter&quot;,&quot;baseline&quot;:70,&quot;baselineProportion&quot;:1,&quot;fontSize&quot;:100}"></path><path d="M58.48414,166.40423l-2.6322,0l0,-23.54877l2.6322,0l0,23.54877z M58.76616,134.60635c0,0 0,0.10576 0,0.31727c0,0.21152 -0.15668,0.47395 -0.47004,0.78731c-0.31336,0.31336 -0.68155,0.47004 -1.10458,0.47004c-0.42303,0 -0.79123,-0.16451 -1.10458,-0.49354c-0.31336,-0.32902 -0.47004,-0.69722 -0.47004,-1.10458c0,-0.40736 0.15668,-0.76772 0.47004,-1.08108c0.31336,-0.31336 0.68939,-0.47004 1.12808,-0.47004c0.4387,0 0.80689,0.15668 1.10458,0.47004c0.29769,0.31336 0.44653,0.68155 0.44653,1.10458" data-paper-data="{&quot;elementType&quot;:&quot;letter&quot;,&quot;baseline&quot;:71,&quot;baselineProportion&quot;:1,&quot;fontSize&quot;:100}"></path><path d="M74.08931,164.6181c1.41011,0 2.97689,-0.20368 4.70035,-0.61105l0.56404,2.11516c-2.00548,0.53271 -3.82295,0.79906 -5.45241,0.79906c-1.62946,0 -3.22758,-0.25069 -4.79436,-0.75206c-3.25891,-1.06541 -4.88837,-3.80729 -4.88837,-8.22562l0,-6.01645c0,-2.22483 0.4387,-4.08931 1.3161,-5.59342c1.50411,-2.60086 3.97963,-3.90129 7.42656,-3.90129c2.06816,0 4.16765,0.50137 6.29847,1.50411l-0.75206,1.92714c-1.78613,-0.68939 -3.32942,-1.03408 -4.62985,-1.03408c-1.30043,0 -2.45202,0.15668 -3.45476,0.47004c-1.00274,0.31336 -1.84881,1.01841 -2.53819,2.11516c-0.68939,1.09675 -1.03408,2.50685 -1.03408,4.23032l0,6.81551c0,4.10497 2.41285,6.15746 7.23854,6.15746z" data-paper-data="{&quot;elementType&quot;:&quot;letter&quot;,&quot;baseline&quot;:51,&quot;baselineProportion&quot;:0.9788867562380039,&quot;fontSize&quot;:100}"></path><path d="M82.66745,165.9342c0,0 -0.07442,0.07834 -0.22327,0.23502c-0.14884,0.15668 -0.44262,0.23502 -0.88132,0.23502c-0.4387,0 -0.80689,-0.15668 -1.10458,-0.47004c-0.29769,-0.31336 -0.44653,-0.67372 -0.44653,-1.08108c0,-0.40736 0.14884,-0.76772 0.44653,-1.08108c0.29769,-0.31336 0.66588,-0.47004 1.10458,-0.47004c0.4387,0 0.80689,0.15668 1.10458,0.47004c0.29769,0.31336 0.44653,0.67372 0.44653,1.08108c0,0.40736 -0.14884,0.76772 -0.44653,1.08108z" data-paper-data="{&quot;elementType&quot;:&quot;letter&quot;,&quot;baseline&quot;:6.599999999999994,&quot;baselineProportion&quot;:1,&quot;fontSize&quot;:100}"></path><path d="M103.23149,144.73561c2.66353,-1.50411 5.18606,-2.25617 7.56757,-2.25617c2.25617,0 4.0423,0.72072 5.3584,2.16216c1.3161,1.44144 1.97415,3.27458 1.97415,5.49941l0,16.26322l-2.58519,0l0,-16.12221c0,-1.41011 -0.29769,-2.55386 -0.89307,-3.43126c-0.59538,-0.8774 -1.3161,-1.42577 -2.16216,-1.64512c-0.84606,-0.21935 -1.52761,-0.32902 -2.04465,-0.32902c-0.51704,0 -1.09675,0.0235 -1.73913,0.07051c-0.64238,0.047 -1.49628,0.27419 -2.56169,0.68155l-1.73913,0.84606c0.53271,1.06541 0.79906,2.2875 0.79906,3.66627l0,16.26322l-2.58519,0l0,-16.12221c0,-1.62946 -0.3917,-2.89855 -1.17509,-3.80729c-0.94007,-1.06541 -2.37368,-1.59812 -4.30082,-1.59812c-1.92714,0 -3.83079,0.51704 -5.71093,1.55112l0,19.9765l-2.6322,0l0,-23.54877l2.6322,0l-0.23502,1.50411c2.16216,-1.22209 4.34783,-1.83314 6.55699,-1.83314c2.20917,0 4.03447,0.73639 5.47591,2.20917z" data-paper-data="{&quot;elementType&quot;:&quot;letter&quot;,&quot;baseline&quot;:50.900000000000006,&quot;baselineProportion&quot;:1,&quot;fontSize&quot;:100}"></path><path d="M129.17744,164.6651c2.16216,0 4.44967,-0.64238 6.86251,-1.92714l1.03408,2.02115c-2.41285,1.47278 -4.93537,2.20917 -7.56757,2.20917c-5.45241,0 -8.17861,-2.2875 -8.17861,-6.86251l0,-9.63572c0,-2.53819 0.79123,-4.51234 2.37368,-5.92244c1.58245,-1.41011 3.67411,-2.11516 6.27497,-2.11516c2.60086,0 4.62985,0.69722 6.08696,2.09166c1.45711,1.39444 2.18566,3.32942 2.18566,5.80494l0,6.11046l-14.28907,0.79906l0,2.86722c0,1.69213 0.61105,2.91422 1.83314,3.66627c0.94007,0.59538 2.06816,0.89307 3.38425,0.89307 M135.61692,154.08931l0,-4.08931c0,-1.34743 -0.36036,-2.45202 -1.08108,-3.31375c-0.72072,-0.86173 -1.47278,-1.41011 -2.25617,-1.64512c-0.78339,-0.23502 -1.56678,-0.35253 -2.35018,-0.35253c-1.72346,0 -3.14924,0.47004 -4.27732,1.41011c-1.12808,0.94007 -1.69213,2.41285 -1.69213,4.41833l0,4.13631l11.65687,-0.56404z" data-paper-data="{&quot;elementType&quot;:&quot;letter&quot;,&quot;baseline&quot;:51,&quot;baselineProportion&quot;:0.9770114942528735,&quot;fontSize&quot;:100}"></path></g></g></g></g><g data-paper-data="{&quot;elementType&quot;:&quot;emblem&quot;}" stroke="none" stroke-miterlimit="4" font-family="'Helvetica Neue', Helvetica, Arial, sans-serif" font-weight="bold" font-size="24"><g><path d="M161.75088,205.60304l74.34349,0l0,-89.66325l-74.34349,0z M166.83522,122.0717l64.17481,0l0,62.98046l-64.17481,0z"></path><path d="M196.11134,94.39696l-2.1296,19.15302l5.11548,0l1.39008,-12.49623l63.78225,7.09161l-6.96039,62.59457l-19.06962,-2.1207l0,20.67655l21.852,2.43097l9.90846,-89.115z"></path></g></g></g></svg>